<?xml version="1.0" standalone="no"?>
<!DOCTYPE svg PUBLIC "-//W3C//DTD SVG 20010904//EN"
 "http://www.w3.org/TR/2001/REC-SVG-20010904/DTD/svg10.dtd">
<svg version="1.0" xmlns="http://www.w3.org/2000/svg"
 width="666.000000pt" height="374.000000pt" viewBox="0 0 666.000000 374.000000"
 preserveAspectRatio="xMidYMid meet">

<g transform="translate(0.000000,374.000000) scale(0.100000,-0.100000)"
fill="#000000" stroke="none">
<path d="M3478 2939 c-25 -4 -55 -12 -66 -18 -23 -12 -210 -38 -372 -52 -268
-22 -330 -28 -424 -44 -55 -9 -104 -19 -110 -22 -5 -4 -68 -6 -140 -4 -129 2
-131 1 -159 -25 -33 -30 -24 -50 17 -40 32 8 39 5 42 -14 1 -8 10 -44 18 -79
9 -35 14 -66 11 -69 -30 -30 -174 -43 -195 -17 -12 14 -34 90 -47 158 -7 39
-29 47 -92 35 -37 -6 -57 -6 -64 1 -6 6 -31 11 -55 11 -46 0 -71 -18 -72 -52
0 -24 90 -41 153 -29 l49 9 14 -34 c8 -18 14 -47 14 -64 0 -27 -3 -30 -30 -30
-16 0 -30 -4 -30 -9 0 -5 -10 -13 -22 -16 -47 -15 -108 -60 -108 -81 0 -28 16
-45 79 -88 61 -41 85 -46 148 -31 43 10 58 30 58 79 0 36 3 41 30 47 66 16
175 32 181 26 3 -3 8 -45 11 -94 5 -81 20 -123 43 -123 17 0 31 164 27 306
l-5 152 30 6 c17 3 55 6 84 6 51 0 54 -1 54 -26 0 -14 -5 -34 -10 -45 -8 -15
-7 -19 5 -19 12 0 15 -13 15 -62 0 -67 21 -205 39 -250 6 -16 17 -28 26 -28 8
0 17 12 21 28 3 15 7 32 9 38 3 10 -4 119 -19 294 -8 89 6 97 200 120 87 9
124 5 124 -15 0 -8 -30 -14 -97 -19 -55 -4 -107 -13 -119 -21 -30 -19 -61 -72
-72 -122 -11 -50 10 -108 55 -148 24 -22 35 -25 79 -21 56 5 132 38 141 61 10
27 23 15 23 -21 0 -45 15 -74 39 -74 27 0 53 34 50 67 -3 25 5 91 16 148 5 25
55 64 87 69 55 8 98 -50 98 -134 0 -41 -18 -60 -82 -88 -45 -19 -33 -32 31
-32 49 0 65 4 90 26 27 23 31 32 31 77 0 77 -18 127 -59 168 -46 46 -107 59
-165 35 -50 -21 -66 -20 -66 2 0 40 45 62 148 72 53 6 123 15 155 21 48 8 60
7 73 -5 15 -15 50 -9 79 13 39 31 130 15 145 -25 23 -60 3 -98 -70 -133 -59
-29 -81 -27 -111 10 -20 24 -30 30 -47 25 -42 -14 -28 -54 41 -119 85 -81 170
-145 213 -163 55 -23 158 -21 235 5 62 20 110 54 97 67 -3 3 -36 -2 -74 -11
-144 -33 -236 -15 -323 64 -54 49 -60 71 -17 71 26 0 96 47 120 82 20 29 20
67 0 118 -18 44 -15 50 29 73 28 15 28 15 -35 23 -81 10 -163 11 -220 3z
m-638 -249 c0 -5 16 -10 35 -10 19 0 35 4 35 9 0 22 38 -3 43 -28 8 -39 -2
-71 -32 -104 -53 -57 -131 -76 -165 -38 -38 42 -38 141 0 141 8 0 22 9 31 20
18 21 53 27 53 10z m-825 -247 c0 -40 -3 -48 -20 -51 -11 -1 -29 4 -39 11 -19
14 -18 15 10 51 16 20 34 36 39 36 6 0 11 -21 10 -47z"/>
<path d="M1508 2663 c-28 -4 -68 -49 -68 -75 0 -22 36 -55 74 -69 43 -16 46
-31 46 -245 0 -148 -2 -163 -21 -188 -15 -19 -30 -26 -54 -26 -18 0 -49 -7
-69 -15 -78 -33 -316 -14 -316 25 0 5 -10 18 -22 30 -20 19 -22 30 -24 166 -3
154 -11 185 -53 199 -11 3 -23 16 -27 28 -10 35 -70 112 -98 127 -23 12 -28
11 -46 -5 -17 -15 -20 -31 -20 -99 0 -175 56 -377 134 -485 42 -59 117 -141
128 -141 5 0 26 -11 46 -25 23 -16 51 -25 74 -25 23 0 40 -6 45 -15 8 -13 23
-11 113 16 58 17 118 42 133 55 16 13 34 24 40 25 7 0 20 2 29 4 20 4 24 -8
33 -92 7 -61 6 -63 -17 -64 -48 -2 -94 -9 -133 -19 -22 -5 -60 -12 -85 -14
-42 -4 -74 -14 -110 -34 -38 -22 -58 -30 -89 -37 -70 -15 -199 -83 -257 -136
-68 -61 -128 -131 -151 -174 -40 -75 -34 -225 14 -364 28 -80 196 -280 305
-363 97 -74 296 -148 451 -168 109 -14 169 -9 225 18 20 11 60 23 87 27 29 4
64 17 83 31 31 25 79 101 68 111 -3 3 -24 -9 -46 -27 -32 -25 -58 -35 -118
-46 -42 -7 -105 -21 -138 -30 -60 -16 -64 -16 -130 6 -38 12 -97 37 -130 56
-34 19 -97 49 -141 67 -118 50 -251 146 -320 231 -68 82 -75 98 -103 207 -25
100 -25 137 -2 201 20 59 83 121 173 170 32 18 59 38 59 45 0 7 8 13 19 13 10
0 24 6 30 14 7 8 27 18 44 22 18 3 37 10 43 15 6 5 42 11 80 14 38 3 89 8 114
12 25 3 61 8 80 10 85 12 93 10 102 -22 5 -16 8 -75 8 -130 0 -55 0 -107 0
-115 0 -37 14 -80 31 -99 19 -20 73 -29 82 -13 9 14 9 257 1 457 -8 183 -9
304 -5 650 1 66 -1 143 -5 171 l-6 52 36 12 c40 13 50 44 17 55 -38 12 -206
25 -243 18z"/>
<path d="M3302 2324 c-29 -20 -28 -38 6 -55 36 -19 42 -28 42 -71 0 -20 6 -63
14 -95 8 -32 17 -114 20 -183 4 -69 14 -173 23 -232 9 -59 14 -110 11 -113 -3
-4 -21 -8 -39 -10 -19 -3 -46 -7 -60 -10 -23 -5 -29 -1 -49 37 -18 34 -24 63
-27 138 -5 140 -13 200 -26 201 -23 1 -92 1 -112 0 -11 0 -48 -19 -81 -41 -48
-31 -65 -49 -78 -83 -21 -55 -20 -75 3 -130 19 -44 75 -97 102 -97 8 0 40 11
72 24 l58 24 10 -26 c5 -15 16 -39 24 -54 8 -14 15 -28 15 -31 0 -10 -65 -27
-142 -37 -43 -5 -100 -17 -128 -26 -27 -9 -56 -14 -64 -11 -9 4 -16 30 -20 74
-9 86 -44 280 -57 311 -9 22 -13 23 -62 17 -29 -4 -56 -14 -60 -22 -8 -12 -11
-11 -24 6 -29 42 -85 15 -67 -33 6 -17 17 -19 98 -20 32 -1 51 -6 56 -16 9
-17 41 -258 40 -307 0 -17 -4 -35 -10 -38 -14 -8 -210 -45 -242 -45 -15 0 -47
-6 -70 -14 -24 -8 -61 -17 -83 -20 -22 -2 -52 -9 -65 -14 -14 -5 -50 -12 -80
-16 -30 -4 -100 -16 -155 -27 -123 -25 -221 -40 -258 -40 -32 0 -45 -22 -27
-44 17 -21 27 -19 35 6 7 20 7 20 27 2 11 -10 30 -17 42 -15 37 4 137 23 281
53 77 16 157 29 177 29 20 0 49 5 65 11 32 12 144 34 249 49 39 5 79 12 88 16
14 5 16 -5 16 -89 0 -73 -3 -96 -14 -100 -8 -3 -20 0 -26 8 -6 7 -35 30 -64
50 -59 40 -86 39 -86 -4 0 -39 22 -65 87 -101 55 -31 60 -32 103 -21 76 21 80
28 80 161 l0 118 78 21 c42 12 115 28 162 37 47 9 103 22 125 29 22 8 77 23
122 34 l81 21 35 -35 c35 -35 68 -44 96 -26 11 7 9 11 -8 21 -14 7 -21 19 -19
32 4 24 14 30 88 52 30 9 77 23 103 31 27 8 81 20 120 25 59 8 166 30 225 46
18 5 27 33 14 46 -7 7 -34 2 -89 -15 -43 -15 -118 -31 -168 -37 -49 -7 -142
-25 -205 -41 -63 -16 -117 -26 -121 -21 -11 13 -28 123 -44 302 -18 188 -55
389 -80 427 -18 27 -51 30 -83 7z m-142 -478 c0 -7 -11 -34 -25 -60 -14 -26
-25 -59 -25 -75 0 -33 -16 -51 -46 -51 -29 0 -54 35 -54 75 0 37 35 96 52 90
7 -3 27 4 43 15 35 23 55 26 55 6z"/>
<path d="M2743 2059 c-19 -19 -16 -64 5 -81 48 -40 111 -42 126 -3 10 28 7 62
-8 74 -22 18 -109 25 -123 10z"/>
<path d="M2476 1955 c-13 -14 -28 -25 -34 -25 -6 0 -9 -6 -6 -14 6 -15 47 -36
69 -36 22 0 44 42 38 73 -7 35 -36 36 -67 2z"/>
<path d="M1996 1960 c-88 -16 -130 -87 -63 -109 25 -8 43 -6 85 8 29 10 55 21
59 25 30 30 123 -39 123 -93 0 -41 -47 -95 -86 -96 -16 -1 -55 -5 -86 -9 -47
-7 -60 -5 -73 8 -21 21 -57 20 -85 -2 -20 -16 -20 -52 0 -52 13 0 62 -49 100
-100 42 -56 141 -154 170 -170 23 -12 134 -6 157 8 15 10 53 74 53 90 0 17
-34 7 -72 -19 -31 -23 -98 -25 -137 -5 -16 9 -41 39 -60 75 -17 33 -36 63 -41
66 -17 11 -11 36 8 34 75 -11 192 66 222 146 11 28 -3 105 -19 105 -4 0 -13
10 -20 23 -31 57 -129 86 -235 67z"/>
<path d="M2476 1813 c-4 -5 -35 -8 -69 -8 -55 0 -63 -2 -74 -25 -8 -16 -9 -28
-2 -36 17 -20 68 -27 100 -14 16 7 33 10 36 6 4 -3 10 -50 14 -104 11 -138 21
-168 65 -182 30 -10 38 -9 55 6 l21 19 -22 17 c-27 22 -40 67 -40 138 -1 53
-20 156 -35 179 -7 13 -38 15 -49 4z"/>
<path d="M3143 1063 c-46 -31 -17 -123 38 -123 55 0 87 45 64 90 -25 49 -62
61 -102 33z"/>
</g>
</svg>
